<mxfile host="app.diagrams.net" modified="2021-09-20T23:09:53.638Z" agent="5.0 (Macintosh; Intel Mac OS X 10_15_7) AppleWebKit/605.1.15 (KHTML, like Gecko) Version/15.0 Safari/605.1.15" etag="gzmvqI3fSoajWaNo3La1" version="15.2.9" type="github">
  <diagram id="6a731a19-8d31-9384-78a2-239565b7b9f0" name="Page-1">
    <mxGraphModel dx="1915" dy="-1687" grid="1" gridSize="11" guides="1" tooltips="1" connect="1" arrows="1" fold="1" page="1" pageScale="1" pageWidth="827" pageHeight="1169" background="none" math="0" shadow="0">
      <root>
        <mxCell id="0" />
        <mxCell id="1" parent="0" />
        <mxCell id="RL3qnS9Fb9dxvWbxrlbk-2290" value="" style="rounded=1;whiteSpace=wrap;html=1;strokeColor=none;fillColor=#BAC8D3;fontSize=24;fontColor=#23445D;align=center;opacity=60;" vertex="1" parent="1">
          <mxGeometry x="1628" y="3905" width="715" height="396" as="geometry" />
        </mxCell>
        <mxCell id="RL3qnS9Fb9dxvWbxrlbk-2289" value="" style="rounded=1;whiteSpace=wrap;html=1;strokeColor=none;fillColor=#BAC8D3;fontSize=24;fontColor=#23445D;align=center;opacity=60;" vertex="1" parent="1">
          <mxGeometry x="740" y="3872" width="415" height="286" as="geometry" />
        </mxCell>
        <mxCell id="RL3qnS9Fb9dxvWbxrlbk-2267" style="edgeStyle=none;rounded=1;orthogonalLoop=1;jettySize=auto;html=1;exitX=0.5;exitY=0.32;exitDx=0;exitDy=0;exitPerimeter=0;entryX=0.5;entryY=0.99;entryDx=0;entryDy=0;entryPerimeter=0;strokeWidth=7;" edge="1" parent="1" source="RL3qnS9Fb9dxvWbxrlbk-2258" target="RL3qnS9Fb9dxvWbxrlbk-2263">
          <mxGeometry relative="1" as="geometry" />
        </mxCell>
        <mxCell id="RL3qnS9Fb9dxvWbxrlbk-2258" value="h" style="shape=mxgraph.cisco.routers.wireless_router;sketch=0;html=1;pointerEvents=1;dashed=0;fillColor=#036897;strokeColor=#ffffff;strokeWidth=2;verticalLabelPosition=bottom;verticalAlign=top;align=center;outlineConnect=0;" vertex="1" parent="1">
          <mxGeometry x="436" y="3910" width="172" height="217" as="geometry" />
        </mxCell>
        <mxCell id="RL3qnS9Fb9dxvWbxrlbk-2264" style="edgeStyle=none;rounded=0;orthogonalLoop=1;jettySize=auto;html=1;exitX=0.95;exitY=0.5;exitDx=0;exitDy=0;exitPerimeter=0;entryX=0;entryY=0.5;entryDx=0;entryDy=0;entryPerimeter=0;strokeWidth=6;" edge="1" parent="1" source="RL3qnS9Fb9dxvWbxrlbk-2260" target="RL3qnS9Fb9dxvWbxrlbk-2258">
          <mxGeometry relative="1" as="geometry" />
        </mxCell>
        <mxCell id="RL3qnS9Fb9dxvWbxrlbk-2260" value="" style="shape=mxgraph.cisco.computers_and_peripherals.laptop;sketch=0;html=1;pointerEvents=1;dashed=0;fillColor=#036897;strokeColor=#ffffff;strokeWidth=2;verticalLabelPosition=bottom;verticalAlign=top;align=center;outlineConnect=0;" vertex="1" parent="1">
          <mxGeometry x="55" y="3795" width="202" height="180" as="geometry" />
        </mxCell>
        <mxCell id="RL3qnS9Fb9dxvWbxrlbk-2265" style="edgeStyle=none;rounded=0;orthogonalLoop=1;jettySize=auto;html=1;entryX=0.12;entryY=0.93;entryDx=0;entryDy=0;entryPerimeter=0;exitX=1;exitY=0.5;exitDx=0;exitDy=0;exitPerimeter=0;strokeWidth=6;" edge="1" parent="1" source="RL3qnS9Fb9dxvWbxrlbk-2261" target="RL3qnS9Fb9dxvWbxrlbk-2258">
          <mxGeometry relative="1" as="geometry">
            <mxPoint x="522" y="4190" as="sourcePoint" />
          </mxGeometry>
        </mxCell>
        <mxCell id="RL3qnS9Fb9dxvWbxrlbk-2261" value="" style="shape=mxgraph.cisco.modems_and_phones.cell_phone;sketch=0;html=1;pointerEvents=1;dashed=0;fillColor=#036897;strokeColor=#ffffff;strokeWidth=2;verticalLabelPosition=bottom;verticalAlign=top;align=center;outlineConnect=0;" vertex="1" parent="1">
          <mxGeometry x="82" y="4257" width="126" height="208" as="geometry" />
        </mxCell>
        <mxCell id="RL3qnS9Fb9dxvWbxrlbk-2266" style="edgeStyle=none;rounded=0;orthogonalLoop=1;jettySize=auto;html=1;exitX=0;exitY=0.5;exitDx=0;exitDy=0;exitPerimeter=0;entryX=1;entryY=0.5;entryDx=0;entryDy=0;entryPerimeter=0;strokeWidth=6;" edge="1" parent="1" source="RL3qnS9Fb9dxvWbxrlbk-2262" target="RL3qnS9Fb9dxvWbxrlbk-2258">
          <mxGeometry relative="1" as="geometry" />
        </mxCell>
        <mxCell id="RL3qnS9Fb9dxvWbxrlbk-2262" value="" style="shape=mxgraph.cisco.servers.microwebserver;sketch=0;html=1;pointerEvents=1;dashed=0;fillColor=#036897;strokeColor=#ffffff;strokeWidth=2;verticalLabelPosition=bottom;verticalAlign=top;align=center;outlineConnect=0;" vertex="1" parent="1">
          <mxGeometry x="840" y="3948.5" width="195" height="140" as="geometry" />
        </mxCell>
        <mxCell id="RL3qnS9Fb9dxvWbxrlbk-2263" value="Internet" style="shape=mxgraph.cisco.storage.cloud;html=1;dashed=0;strokeColor=#23445D;fillColor=#ffffff;strokeWidth=2;fontFamily=Helvetica;fontSize=24;fontColor=#23445D;align=center;fontStyle=1" vertex="1" parent="1">
          <mxGeometry x="330" y="3608" width="385" height="222" as="geometry" />
        </mxCell>
        <mxCell id="RL3qnS9Fb9dxvWbxrlbk-2268" value="Webserver" style="text;strokeColor=none;fillColor=none;html=1;fontSize=29;fontStyle=1;verticalAlign=middle;align=center;" vertex="1" parent="1">
          <mxGeometry x="887" y="4108.5" width="100" height="40" as="geometry" />
        </mxCell>
        <mxCell id="RL3qnS9Fb9dxvWbxrlbk-2269" value="Personal Weather Station" style="text;strokeColor=none;fillColor=none;html=1;fontSize=29;fontStyle=1;verticalAlign=middle;align=center;" vertex="1" parent="1">
          <mxGeometry x="898" y="3883" width="100" height="40" as="geometry" />
        </mxCell>
        <mxCell id="RL3qnS9Fb9dxvWbxrlbk-2270" value="Host 1" style="text;strokeColor=none;fillColor=none;html=1;fontSize=29;fontStyle=1;verticalAlign=middle;align=center;" vertex="1" parent="1">
          <mxGeometry x="68" y="4477" width="100" height="40" as="geometry" />
        </mxCell>
        <mxCell id="RL3qnS9Fb9dxvWbxrlbk-2271" value="Host 2" style="text;strokeColor=none;fillColor=none;html=1;fontSize=29;fontStyle=1;verticalAlign=middle;align=center;" vertex="1" parent="1">
          <mxGeometry x="82" y="3982" width="100" height="40" as="geometry" />
        </mxCell>
        <mxCell id="RL3qnS9Fb9dxvWbxrlbk-2274" value="ISP Router" style="text;html=1;strokeColor=none;fillColor=none;align=center;verticalAlign=middle;whiteSpace=wrap;rounded=0;fontSize=29;" vertex="1" parent="1">
          <mxGeometry x="497.5" y="4169" width="40" height="20" as="geometry" />
        </mxCell>
        <mxCell id="RL3qnS9Fb9dxvWbxrlbk-2284" style="edgeStyle=none;rounded=1;orthogonalLoop=1;jettySize=auto;html=1;exitX=0.03;exitY=0.36;exitDx=0;exitDy=0;exitPerimeter=0;entryX=0.95;entryY=0.5;entryDx=0;entryDy=0;entryPerimeter=0;fontSize=29;strokeWidth=6;" edge="1" parent="1" source="RL3qnS9Fb9dxvWbxrlbk-2277" target="RL3qnS9Fb9dxvWbxrlbk-2280">
          <mxGeometry relative="1" as="geometry" />
        </mxCell>
        <mxCell id="RL3qnS9Fb9dxvWbxrlbk-2285" style="edgeStyle=none;rounded=1;orthogonalLoop=1;jettySize=auto;html=1;exitX=0.025;exitY=0.975;exitDx=0;exitDy=0;exitPerimeter=0;entryX=1;entryY=0.5;entryDx=0;entryDy=0;entryPerimeter=0;fontSize=29;strokeWidth=6;" edge="1" parent="1" source="RL3qnS9Fb9dxvWbxrlbk-2277" target="RL3qnS9Fb9dxvWbxrlbk-2281">
          <mxGeometry relative="1" as="geometry" />
        </mxCell>
        <mxCell id="RL3qnS9Fb9dxvWbxrlbk-2277" value="&lt;hr&gt;" style="points=[[0.03,0.36,0],[0.18,0,0],[0.5,0.34,0],[0.82,0,0],[0.97,0.36,0],[1,0.67,0],[0.975,0.975,0],[0.5,1,0],[0.025,0.975,0],[0,0.67,0]];verticalLabelPosition=bottom;sketch=0;html=1;verticalAlign=top;aspect=fixed;align=center;pointerEvents=1;shape=mxgraph.cisco19.wireless_access_point;fillColor=#005073;strokeColor=none;fontSize=29;" vertex="1" parent="1">
          <mxGeometry x="1683" y="3993" width="198" height="198" as="geometry" />
        </mxCell>
        <mxCell id="RL3qnS9Fb9dxvWbxrlbk-2279" style="edgeStyle=none;rounded=1;orthogonalLoop=1;jettySize=auto;html=1;entryX=1;entryY=0.67;entryDx=0;entryDy=0;entryPerimeter=0;fontSize=29;strokeWidth=6;" edge="1" parent="1" source="RL3qnS9Fb9dxvWbxrlbk-2278" target="RL3qnS9Fb9dxvWbxrlbk-2277">
          <mxGeometry relative="1" as="geometry" />
        </mxCell>
        <mxCell id="RL3qnS9Fb9dxvWbxrlbk-2278" value="" style="shape=mxgraph.cisco.servers.microwebserver;sketch=0;html=1;pointerEvents=1;dashed=0;fillColor=#036897;strokeColor=#ffffff;strokeWidth=2;verticalLabelPosition=bottom;verticalAlign=top;align=center;outlineConnect=0;" vertex="1" parent="1">
          <mxGeometry x="2101" y="4048" width="217" height="145" as="geometry" />
        </mxCell>
        <mxCell id="RL3qnS9Fb9dxvWbxrlbk-2280" value="" style="shape=mxgraph.cisco.computers_and_peripherals.laptop;sketch=0;html=1;pointerEvents=1;dashed=0;fillColor=#036897;strokeColor=#ffffff;strokeWidth=2;verticalLabelPosition=bottom;verticalAlign=top;align=center;outlineConnect=0;" vertex="1" parent="1">
          <mxGeometry x="1342" y="3784" width="202" height="180" as="geometry" />
        </mxCell>
        <mxCell id="RL3qnS9Fb9dxvWbxrlbk-2281" value="" style="shape=mxgraph.cisco.modems_and_phones.cell_phone;sketch=0;html=1;pointerEvents=1;dashed=0;fillColor=#036897;strokeColor=#ffffff;strokeWidth=2;verticalLabelPosition=bottom;verticalAlign=top;align=center;outlineConnect=0;" vertex="1" parent="1">
          <mxGeometry x="1369" y="4246" width="126" height="208" as="geometry" />
        </mxCell>
        <mxCell id="RL3qnS9Fb9dxvWbxrlbk-2282" value="Host 1" style="text;strokeColor=none;fillColor=none;html=1;fontSize=29;fontStyle=1;verticalAlign=middle;align=center;" vertex="1" parent="1">
          <mxGeometry x="1355" y="4466" width="100" height="40" as="geometry" />
        </mxCell>
        <mxCell id="RL3qnS9Fb9dxvWbxrlbk-2283" value="Host 2" style="text;strokeColor=none;fillColor=none;html=1;fontSize=29;fontStyle=1;verticalAlign=middle;align=center;" vertex="1" parent="1">
          <mxGeometry x="1369" y="3971" width="100" height="40" as="geometry" />
        </mxCell>
        <mxCell id="RL3qnS9Fb9dxvWbxrlbk-2286" value="Personal Weather Station" style="text;strokeColor=none;fillColor=none;html=1;fontSize=29;fontStyle=1;verticalAlign=middle;align=center;" vertex="1" parent="1">
          <mxGeometry x="1958" y="3924" width="100" height="40" as="geometry" />
        </mxCell>
        <mxCell id="RL3qnS9Fb9dxvWbxrlbk-2288" value="Webserver" style="text;strokeColor=none;fillColor=none;html=1;fontSize=29;fontStyle=1;verticalAlign=middle;align=center;" vertex="1" parent="1">
          <mxGeometry x="2159.5" y="4229.5" width="100" height="40" as="geometry" />
        </mxCell>
        <mxCell id="RL3qnS9Fb9dxvWbxrlbk-2292" value="Wireless access point" style="text;strokeColor=none;fillColor=none;html=1;fontSize=29;fontStyle=1;verticalAlign=middle;align=center;" vertex="1" parent="1">
          <mxGeometry x="1760" y="4228" width="100" height="40" as="geometry" />
        </mxCell>
        <mxCell id="RL3qnS9Fb9dxvWbxrlbk-2293" value="Mode of operation as host" style="swimlane;fontSize=29;" vertex="1" parent="1">
          <mxGeometry x="33" y="3564" width="1144" height="1001" as="geometry" />
        </mxCell>
        <mxCell id="RL3qnS9Fb9dxvWbxrlbk-2294" value="Mode of operation as wireless access point" style="swimlane;fontSize=29;" vertex="1" parent="1">
          <mxGeometry x="1238" y="3564" width="1144" height="1001" as="geometry" />
        </mxCell>
      </root>
    </mxGraphModel>
  </diagram>
</mxfile>
